HIERARCHY
ROOT Hips
{
	OFFSET 0.000000 0.000000 0.000000 
	CHANNELS 6 Xposition Yposition Zposition Zrotation Yrotation Xrotation
	JOINT LeftUpLeg
	{
		OFFSET 1.363060 -1.794630 0.839290 
		CHANNELS 3 Zrotation Yrotation Xrotation
		JOINT LeftLeg
		{
			OFFSET 2.448110 -6.726130 0.000000 
			CHANNELS 3 Zrotation Yrotation Xrotation
			JOINT LeftFoot
			{
				OFFSET 2.562200 -7.039590 0.000000 
				CHANNELS 3 Zrotation Yrotation Xrotation
				JOINT LeftToeBase
				{
					OFFSET 0.157640 -0.433110 2.322550 
					CHANNELS 3 Zrotation Yrotation Xrotation
					End Site
					{
						OFFSET 0.000000 0.000000 0.000000 
					}
				}
			}
		}
	}
	JOINT RightUpLeg
	{
		OFFSET -1.305520 -1.794630 0.839290 
		CHANNELS 3 Zrotation Yrotation Xrotation
		JOINT RightLeg
		{
			OFFSET -2.542530 -6.985550 0.000000 
			CHANNELS 3 Zrotation Yrotation Xrotation
			JOINT RightFoot
			{
				OFFSET -2.568260 -7.056230 0.000000 
				CHANNELS 3 Zrotation Yrotation Xrotation
				JOINT RightToeBase
				{
					OFFSET -0.164730 -0.452590 2.363150 
					CHANNELS 3 Zrotation Yrotation Xrotation
					End Site
					{
						OFFSET 0.000000 0.000000 0.000000 
					}
				}
			}
		}
	}
	JOINT Spine
	{
		OFFSET 0.028270 2.035590 -0.193380 
		CHANNELS 3 Zrotation Yrotation Xrotation
		JOINT Spine1
		{
			OFFSET 0.056720 2.048850 -0.042750 
			CHANNELS 3 Zrotation Yrotation Xrotation
			JOINT Neck1
			{
				OFFSET -0.054170 1.746240 0.172020 
				CHANNELS 3 Zrotation Yrotation Xrotation
				JOINT Head
				{
					OFFSET 0.104070 1.761360 -0.123970 
					CHANNELS 3 Zrotation Yrotation Xrotation
					End Site
					{
						OFFSET 0.000000 0.000000 0.000000 
					}
				}
			}
			JOINT LeftArm
			{
				OFFSET 3.362410 1.200890 -0.311210 
				CHANNELS 3 Zrotation Yrotation Xrotation
				JOINT LeftForeArm
				{
					OFFSET 4.983000 -0.000000 -0.000000 
					CHANNELS 3 Zrotation Yrotation Xrotation
					JOINT LeftHand
					{
						OFFSET 3.483560 -0.000000 -0.000000 
						CHANNELS 3 Zrotation Yrotation Xrotation
						JOINT LeftHandIndex1
						{
							OFFSET 0.715260 -0.000000 -0.000000 
							CHANNELS 3 Zrotation Yrotation Xrotation
							End Site
							{
								OFFSET 0.000000 0.000000 0.000000 
							}
						}
					}
				}
			}
			JOINT RightArm
			{
				OFFSET -3.136600 1.374050 -0.404650 
				CHANNELS 3 Zrotation Yrotation Xrotation
				JOINT RightForeArm
				{
					OFFSET -5.241900 -0.000000 -0.000000 
					CHANNELS 3 Zrotation Yrotation Xrotation
					JOINT RightHand
					{
						OFFSET -3.444170 -0.000000 -0.000000 
						CHANNELS 3 Zrotation Yrotation Xrotation
						JOINT RightHandIndex1
						{
							OFFSET -0.622530 -0.000000 -0.000000 
							CHANNELS 3 Zrotation Yrotation Xrotation
							End Site
							{
								OFFSET 0.000000 0.000000 0.000000 
							}
						}
					}
				}
			}
		}
	}
}
MOTION
Frames: 13
Frame Time: 0.041667
-17.822295 16.071884 -3.283081 166.576695 -29.923320 -176.807111 -15.701663 19.232705 -41.245812 14.769042 19.839942 73.524644 -0.778968 4.863067 12.276113 0.869200 -5.944600 -16.623800 20.957573 -4.800979 -48.744696 -2.847138 -15.946527 42.109976 -3.348546 13.559103 13.164275 -4.862700 13.227500 -40.226200 0.162387 -3.848055 -1.188704 0.767398 -3.726566 1.952532 -0.884641 7.594211 3.658068 3.891300 4.825400 -3.846300 -64.484358 -2.784107 -2.549426 24.893761 -38.472665 -14.228908 -0.056980 -2.266740 -41.135163 -7.125000 0.000000 0.000000 69.092836 -3.887894 9.024481 -24.158424 38.257293 -13.177036 2.176330 -0.457023 -30.128043 7.125000 0.000000 0.000000 
-18.223617 15.965784 -3.482045 165.554177 -30.730442 -176.787793 -15.520135 18.859490 -40.748962 13.844591 19.614357 70.997621 -0.599837 4.028181 12.116453 1.227000 -7.025300 -19.790400 19.546573 -3.552407 -47.499924 -2.627007 -15.656807 40.841576 -2.879083 9.742950 11.110007 -5.122500 13.520500 -41.349400 0.144089 -3.964606 -1.163105 0.552100 -3.835622 2.111157 -1.085995 7.384710 3.786496 3.420400 4.620100 -3.485500 -63.800426 -3.466998 -2.404513 24.998296 -38.500379 -14.329690 -0.044587 -2.298897 -41.378903 -7.125000 0.000000 0.000000 70.272469 -3.846336 7.713658 -23.337260 37.550312 -12.562447 2.201720 -0.471440 -30.406943 7.125000 0.000000 0.000000 
-18.638399 15.846338 -3.689267 164.418863 -31.573524 -176.747371 -15.530633 18.633702 -40.182147 12.875549 19.334890 68.327075 -0.475385 3.453039 11.719312 1.735100 -8.291100 -23.601800 18.153393 -2.709802 -46.403479 -2.672716 -15.559240 40.321930 -1.981377 5.081920 9.420610 -5.297100 13.710700 -42.090800 0.098486 -4.078914 -1.112047 0.498104 -3.911859 2.132383 -0.895574 7.012054 3.730373 3.615300 4.477800 -3.704700 -63.030903 -4.063528 -1.908418 25.124812 -38.589598 -14.435735 -0.015052 -2.339428 -41.883733 -7.125000 0.000000 0.000000 71.337381 -4.007228 6.862461 -22.700750 37.037912 -12.094334 2.236999 -0.446196 -31.080693 7.125000 0.000000 0.000000 
-19.067999 15.714223 -3.904293 163.234335 -32.396524 -176.673580 -15.616941 18.542732 -39.658180 11.874285 18.993058 65.441085 -0.466950 3.519823 11.778866 1.638000 -8.067400 -22.918900 16.706989 -2.099560 -45.294249 -2.882856 -15.610545 40.418825 -1.085507 1.379750 8.720744 -4.744100 13.089700 -39.705000 0.047288 -4.176757 -1.044491 0.624189 -3.977958 2.188353 -0.392400 6.664597 3.617715 4.246700 4.417800 -4.168900 -62.352306 -4.511721 -1.314059 25.421768 -38.846339 -14.676296 0.033168 -2.376379 -42.491441 -7.125000 0.000000 0.000000 72.170865 -4.080221 6.033322 -22.000591 36.470546 -11.605277 2.279681 -0.401481 -31.594334 7.125000 0.000000 0.000000 
-19.497939 15.564010 -4.119998 162.426673 -33.179375 -176.618489 -15.381984 18.434185 -39.480253 10.864114 18.590998 62.425046 -0.444477 3.628511 12.303784 1.589100 -7.952000 -22.568300 15.509361 -1.358151 -44.244862 -3.143989 -15.780537 41.001226 -0.735483 0.071002 8.938444 -3.838300 11.942000 -35.527100 0.025098 -4.212503 -0.994678 0.760592 -4.021961 2.299412 -0.173216 6.366301 3.592183 4.516800 4.323700 -4.405600 -62.192439 -4.636112 -0.942285 26.155013 -39.433519 -15.248353 0.086489 -2.377405 -42.741074 -7.125000 0.000000 0.000000 72.752303 -4.075529 5.348834 -21.186909 35.784155 -11.041771 2.331173 -0.367043 -32.048554 7.125000 0.000000 0.000000 
-19.923240 15.398527 -4.331179 162.410671 -34.171896 -176.810078 -14.498467 18.076858 -39.532365 9.820000 18.110136 59.291535 -0.281331 3.130439 12.579063 2.130800 -9.133300 -26.213100 15.042913 -0.719941 -43.537131 -3.442165 -16.079884 42.152033 -1.096180 1.547906 9.877482 -3.054600 10.782900 -31.551100 0.036559 -4.192678 -0.980483 0.871554 -3.994171 2.247078 0.126647 6.133218 3.585785 4.832700 4.252000 -4.613200 -61.872040 -4.729920 -0.500092 26.833011 -39.944085 -15.783761 0.131181 -2.387756 -42.905460 -7.125000 0.000000 0.000000 73.136222 -4.285188 5.007180 -20.415991 35.133229 -10.516225 2.390635 -0.316554 -32.620830 7.125000 0.000000 0.000000 
-20.349786 15.213815 -4.533989 162.623661 -35.290239 -177.086973 -13.625573 17.765417 -39.811124 8.879387 17.614555 56.433915 -0.082315 2.511368 12.807998 2.992900 -10.683600 -31.220100 14.990947 -0.258234 -43.388955 -3.910369 -16.604283 44.149785 -1.826883 4.911586 12.103230 -1.418500 7.532000 -21.301500 0.019424 -4.116017 -0.953591 0.473014 -3.863069 2.279421 0.366872 5.633701 3.615671 5.111700 4.031600 -4.692500 -61.152697 -5.275657 0.117570 27.345704 -40.280929 -16.139533 0.153692 -2.403522 -42.782669 -7.125000 0.000000 0.000000 73.816763 -4.510667 4.541408 -19.713619 34.549492 -10.058611 2.436022 -0.264864 -33.040675 7.125000 0.000000 0.000000 
-20.746471 15.089618 -4.709991 162.704882 -36.213769 -177.291549 -13.194552 17.724930 -40.102512 7.868124 17.011921 53.282668 0.077602 2.290520 13.992239 4.287100 -12.533000 -37.644600 15.332797 -0.130564 -44.068686 -4.672058 -17.400229 47.212184 -2.403425 8.457591 17.462221 -0.199900 -2.878700 7.941200 0.012052 -3.891184 -0.949903 0.335667 -3.694051 2.216321 0.546077 5.024439 3.666257 5.340400 3.749500 -4.654700 -60.780337 -5.890857 0.757336 27.896747 -40.617738 -16.500734 0.155683 -2.394159 -42.445711 -7.125000 0.000000 0.000000 74.236390 -4.589027 3.895689 -18.959405 33.849552 -9.571503 2.476136 -0.234943 -33.144054 7.125000 0.000000 0.000000 
-21.165665 14.849367 -4.867783 162.988682 -36.823172 -177.744510 -12.338182 17.253100 -40.471171 6.999502 16.449005 50.478978 0.244185 2.156976 15.577360 5.203500 -13.609400 -41.694700 14.576719 1.981739 -45.314641 -6.543215 -18.742169 52.014927 -1.316841 4.075876 9.776749 -3.735800 11.800300 -35.029200 0.015627 -3.300697 -0.965483 0.197037 -3.372575 2.143844 0.406357 4.163122 3.754415 5.176500 3.280700 -4.196100 -60.616059 -6.992146 1.648608 28.474012 -40.904748 -16.828237 0.142808 -2.390027 -42.074062 -7.125000 0.000000 0.000000 74.362740 -4.336018 2.640095 -18.023044 32.854548 -8.982526 2.526912 -0.225403 -32.986676 7.125000 0.000000 0.000000 
-21.572077 14.670198 -5.013019 163.152290 -36.963308 -178.201799 -11.211996 16.445840 -39.888301 5.937486 15.680753 47.007946 0.384316 2.231316 16.937569 5.242500 -13.651800 -41.860100 12.574532 4.644559 -46.467018 -8.413939 -20.034034 57.098455 -0.739426 2.073583 6.728462 -3.450600 11.391000 -33.610200 -0.035705 -2.657698 -0.923754 0.544724 -3.010163 1.641567 1.315317 3.409073 3.094982 6.522100 3.173300 -5.255100 -60.647417 -7.758864 2.371180 29.150451 -41.306665 -17.240525 0.135298 -2.381505 -41.777842 -7.125000 0.000000 0.000000 74.225064 -3.738929 1.029619 -16.705268 31.458302 -8.202423 2.569673 -0.282598 -31.781148 7.125000 0.000000 0.000000 
-21.963332 14.512972 -5.163571 164.035676 -36.341408 -179.262531 -9.943404 16.907237 -39.633825 5.044472 14.835808 43.838253 0.678184 1.646086 17.656784 7.559300 -15.785400 -50.959400 11.866317 6.854110 -47.271261 -10.072952 -21.027461 61.643552 -0.100962 -0.520574 1.966463 -4.975500 13.356200 -40.716800 -0.087161 -1.727796 -0.906865 -0.074523 -2.542342 1.783201 0.962000 2.893231 3.115228 5.840900 2.792400 -4.723300 -60.049420 -8.487244 2.930747 30.055608 -41.804681 -17.876004 0.124627 -2.396819 -42.019692 -7.125000 0.000000 0.000000 74.707283 -2.244019 -1.423388 -15.369202 29.805426 -7.394675 2.546647 -0.444462 -29.162989 7.125000 0.000000 0.000000 
-22.350967 14.395900 -5.298401 164.929378 -36.188379 178.848694 -8.222306 16.727581 -37.950544 4.020374 13.793577 40.083618 0.980730 1.363643 18.958164 8.600700 -16.543800 -54.698700 11.951326 6.900444 -46.708191 -11.254808 -21.475615 64.774476 0.369273 -2.171309 3.286787 -2.499000 9.836100 -28.447500 -0.099397 -1.187825 -0.859402 -0.495439 -2.323795 1.787103 0.769175 2.473082 2.800215 5.486000 2.552700 -4.665600 -59.565532 -9.129355 3.227822 31.147232 -42.403168 -18.683603 0.124523 -2.413026 -42.799572 -7.125000 0.000000 0.000000 74.746837 -0.481345 -3.312007 -14.300113 28.371558 -6.769965 2.521405 -0.612424 -27.280371 7.125000 0.000000 0.000000 
-22.727518 14.315025 -5.417734 165.890935 -36.082867 177.222409 -6.430674 15.922614 -36.216318 3.089034 12.739669 36.316955 1.052445 2.095334 20.503259 8.839600 -16.703400 -55.533700 12.535694 5.907714 -46.193112 -12.021704 -21.644866 66.899166 0.444927 -2.402380 2.503215 -1.550300 7.858800 -22.286000 -0.088700 -0.704823 -0.747007 -0.079671 -2.182581 1.579306 1.520511 2.239436 1.803483 6.460300 2.685700 -5.910700 -59.671490 -9.480657 3.433292 32.353331 -43.141772 -19.627131 0.132110 -2.408941 -43.734623 -7.125000 0.000000 0.000000 73.916917 0.853303 -3.790362 -13.642756 27.517199 -6.409221 2.545861 -0.692715 -26.901837 7.125000 0.000000 0.000000 
